<svg version="1.1" id="Layer_1" xmlns="http://www.w3.org/2000/svg" xmlns:xlink="http://www.w3.org/1999/xlink" x="0px" y="0px" width="190" height="54" viewBox="0 0 190 54" style="enable-background:new 0 0 190 54;" xml:space="preserve">
<polygon points="117.3,50.9 117.3,49.4 109.1,49.4 109.1,34.2 107.3,34.2 107.3,50.9 109.1,50.9 "/>
<path d="M95.9,34.3h-1.9L87,51h2.2l2.3-5.5h7.1l2.3,5.5h2.2L95.9,34.3z M92,44.1l3-7.1l3,7.1H92z"/>
<path d="M85.1,37.2c-0.2-0.6-0.6-1.2-1.1-1.7c-0.8-0.7-1.7-1.2-2.6-1.5c-0.8-0.2-1.6-0.4-2.6-0.4c-1.5-0.1-3.3-0.1-4.7,0v17.8h1.8  v-7.5c1.6,0,3.2,0,4.9-0.1c0.9-0.1,1.8-0.4,2.5-0.8c0.6-0.4,1.1-0.9,1.5-1.5c0.3-0.6,0.5-1.3,0.5-2C85.4,38.7,85.4,37.9,85.1,37.2z   M83.7,39.3c0,0.1,0,0.3-0.1,0.4c0,0.2-0.1,0.5-0.2,0.7c0,0.1-0.1,0.2-0.1,0.3c0,0.1-0.1,0.2-0.1,0.2c0,0.1-0.1,0.1-0.2,0.2  c-0.1,0.1-0.1,0.1-0.2,0.2c-0.1,0.1-0.2,0.1-0.2,0.2c-0.1,0.1-0.3,0.2-0.4,0.2c-0.2,0.1-0.5,0.2-0.8,0.3c-0.1,0-0.3,0.1-0.4,0.1  c-0.1,0-0.1,0-0.2,0c-0.1,0-0.3,0-0.4,0c-0.8,0-1.5,0.1-2.3,0.1c-0.8,0-1.6,0-2.4,0v-7c0.5,0,1,0,1.4,0c0.5,0,0.9,0,1.4,0  c0.4,0,0.8,0.1,1.3,0.1c0.3,0,0.6,0.1,1,0.2c0.3,0.1,0.7,0.2,1,0.4c0.3,0.1,0.6,0.3,0.9,0.5c0.2,0.2,0.4,0.3,0.5,0.5  c0.1,0.2,0.2,0.3,0.3,0.5c0,0.1,0.1,0.2,0.1,0.2c0,0.1,0.1,0.2,0.1,0.3c0.1,0.2,0.1,0.5,0.1,0.8C83.7,39,83.7,39.1,83.7,39.3z"/>
<polygon points="185.4,29.9 185.4,26.4 174.3,26.4 174.3,4.7 170.7,4.7 170.7,29.9 174.3,29.9 "/>
<path d="M154.8,4.8h-2.9l-10.9,24.6h4l2.3-5.6h12.3l2.3,5.6h4L154.8,4.8z M148.3,21l5-12.3l5,12.3H148.3z"/>
<polyline points="132.1,29.9 136.3,29.9 136.3,4.7 132.1,4.7 132.1,23.5 131.3,23.5 119,4.7 117.6,4.7 113.6,4.7 113.6,29.9   117.6,29.9 117.6,10.9 119,10.9 131.5,29.9 "/>
<rect x="102.1" y="4.7" width="4.8" height="25.2"/>
<path d="M95.7,27.5V15.3h-9.2v3.7h5.8c0,3.2,0,2.9,0,5.7c-0.5,0.4-1,0.8-1.5,1.1c-1.5,0.8-3.2,1.2-4.9,1.2c-1.7,0-3.4-0.5-4.9-1.3  c-1.5-0.8-2.7-2-3.6-3.5c-0.9-1.5-1.3-3.2-1.3-4.9c0-1.7,0.5-3.4,1.3-4.9c0.9-1.5,2.1-2.8,3.6-3.6c1.5-0.9,3.2-1.3,4.9-1.3  c1.7,0,3.4,0.5,4.9,1.3c0.6,0.4,1.2,0.8,1.7,1.2c1-0.9,1.9-1.8,2.9-2.7c-0.7-0.6-1.5-1.1-2.4-1.6C90.9,4.5,88.5,4,86.1,4  s-5,0.6-7.1,1.6c-2.1,1.1-3.7,2.7-4.9,4.7s-1.9,4.3-2,6.7c-0.1,2.3,0.4,4.7,1.5,6.7s2.6,3.7,4.8,4.9c2.2,1.1,5,1.7,7.4,1.8  c2.3,0.1,4.2-0.3,6.3-1C93.2,28.9,94.5,28.4,95.7,27.5z"/>
<rect x="62" y="4.7" width="4.8" height="25.2"/>
<path d="M50.4,18.4c0.4,0,0.7-0.1,1.1-0.2c0.3-0.1,0.6-0.2,0.9-0.3c1-0.3,1.9-0.7,2.6-1.3c0.7-0.6,1.3-1.3,1.6-2.3  c0.3-1,0.4-2.2,0.3-3.2c-0.1-0.9-0.2-1.8-0.6-2.5c-0.5-1-1.4-1.8-2.2-2.4c-0.9-0.6-1.8-0.9-2.8-1.1C48.6,4.6,45,4.6,38.7,4.7v25.2  h4.1V19.1c1-0.9,2.4-1,4.1-0.5l6,11h4.5C55,25.9,52.7,22.2,50.4,18.4z M49.4,16h-4c-0.7,0-1.3,0-2,0c-0.2,0-0.3,0-0.5,0  c-0.1,0-0.2,0-0.2-0.1c0-0.1,0-0.2,0-0.2c0-0.3,0-0.7,0-1c0-1.3,0-2.7,0-4c0-0.7,0-1.3,0-2c0-0.1-0.1-0.4,0.1-0.4c0.2,0,0.3,0,0.5,0  c0.3,0,0.7,0,1,0c1.3,0,2.7,0,4,0.1c1.4,0.1,2.6,0,3.7,1.2c2.2,2.3,0.9,5.4-2,6.3C49.9,15.9,49.7,16,49.4,16z"/>
<path d="M20.1,4.3c-7.2,0-13.5,5.5-13.5,12.9c0,7.4,6.3,12.9,13.5,12.9s13.5-5.5,13.5-12.9C33.6,9.8,27.2,4.3,20.1,4.3z M28.9,20.7  c-0.2,0.6-0.5,1.2-0.9,1.7c-0.4,0.6-0.8,1.1-1.2,1.6c-0.5,0.5-1,0.9-1.5,1.3c-0.5,0.4-1.1,0.7-1.7,0.9c-0.6,0.2-1.2,0.4-1.8,0.5  c-0.6,0.1-1.2,0.2-1.8,0.2c-0.6,0-1.2-0.1-1.8-0.2c-0.6-0.1-1.2-0.3-1.8-0.5c-0.6-0.2-1.2-0.6-1.7-0.9c-0.5-0.4-1.1-0.8-1.5-1.3  c-0.5-0.5-0.9-1-1.2-1.6c-0.3-0.5-0.6-1.1-0.9-1.7c-0.4-1.1-0.6-2.3-0.6-3.5c0-1.2,0.2-2.4,0.6-3.5c0.2-0.6,0.5-1.2,0.9-1.7  c0.4-0.6,0.8-1.1,1.2-1.6c0.5-0.5,1-0.9,1.5-1.3c0.5-0.4,1.1-0.7,1.7-0.9c0.6-0.2,1.2-0.4,1.8-0.5c0.6-0.1,1.2-0.2,1.8-0.2  c0.6,0,1.2,0.1,1.8,0.2C22.4,7.8,23,8,23.6,8.2c0.6,0.2,1.2,0.6,1.7,0.9c0.5,0.4,1.1,0.8,1.5,1.3c0.5,0.5,0.9,1,1.2,1.6  c0.3,0.5,0.6,1.1,0.9,1.7c0.4,1.1,0.6,2.3,0.6,3.5C29.5,18.4,29.3,19.6,28.9,20.7z"/>
</svg>